<?xml version="1.0" encoding="UTF-8" standalone="no"?>
<!-- Created with Inkscape (http://www.inkscape.org/) -->

<svg
   xmlns:dc="http://purl.org/dc/elements/1.1/"
   xmlns:cc="http://creativecommons.org/ns#"
   xmlns:rdf="http://www.w3.org/1999/02/22-rdf-syntax-ns#"
   xmlns:svg="http://www.w3.org/2000/svg"
   xmlns="http://www.w3.org/2000/svg"
   version="1.1"
   width="990"
   height="990"
   id="svg2"
   xml:space="preserve"><metadata
     id="metadata8"><rdf:RDF><cc:Work
         rdf:about=""><dc:format>image/svg+xml</dc:format><dc:type
           rdf:resource="http://purl.org/dc/dcmitype/StillImage" /><dc:title></dc:title></cc:Work></rdf:RDF></metadata><defs
     id="defs6"><clipPath
       id="clipPath20"><path
         d="M 0,612 792,612 792,0 0,0 0,612 z"
         id="path22" /></clipPath></defs><g
     transform="matrix(1.25,0,0,-1.25,0,990)"
     id="g10"><g
       transform="translate(0,91.5533)"
       id="g16"
       style="fill:#ffffff"><g
         transform="translate(-1.06435,0)"
         id="g3037"
         style="fill:#ffffff"><g
           transform="translate(141.2598,340.4941)"
           id="g12"
           style="fill:#ffffff"><path
             d="m 0,0 -0.002,0 -15.751,0 -10e-4,0 0,-0.003 L -32.63,-37.655 -49.508,0 -65.26,0 l 0,-75.209 15.752,0 0,40.063 9.002,-20.083 -0.027,-0.059 0.053,0 15.699,0 0.053,0 -0.026,0.059 9,20.079 0,-40.059 15.752,0 0,75.205 L 0,0 z"
             id="path14"
             style="fill:#ffffff;fill-opacity:1;fill-rule:nonzero;stroke:none" /></g><g
           clip-path="url(#clipPath20)"
           id="g18"
           style="fill:#ffffff"><g
             transform="translate(384.1377,297.8828)"
             id="g24"
             style="fill:#ffffff"><path
               d="M 0,0 C 13.255,0 19.069,4.035 19.069,14.798 19.069,25.56 13.022,29.82 0,29.82 l -5.116,0 L -5.116,0 0,0 z m 36.976,-32.623 -18.837,0 -13.023,19.282 c -1.512,-0.224 -3.139,-0.337 -4.651,-0.337 l -5.581,0 0,-18.945 -16.279,0 0,76.233 21.86,0 c 22.093,0 35.348,-10.202 35.348,-28.812 0,-11.884 -5.465,-19.395 -15.232,-23.655 l 16.395,-23.766 z"
               id="path26"
               style="fill:#ffffff;fill-opacity:1;fill-rule:nonzero;stroke:none" /></g><g
             transform="translate(172.9756,295.7637)"
             id="g28"
             style="fill:#ffffff"><path
               d="m 0,0 8.831,26.496 0.199,0 L 17.576,0 0,0 z m 1.053,45.188 -27.022,-75.83 15.854,0 5.584,16.887 26.623,0 5.385,-16.887 16.253,0 -26.624,75.83 -16.053,0 z"
               id="path30"
               style="fill:#ffffff;fill-opacity:1;fill-rule:nonzero;stroke:none" /></g><g
             transform="translate(296.7749,265.1221)"
             id="g32"
             style="fill:#ffffff"><path
               d="m 0,0 53.055,0 0,14.019 -37.4,0 0,16.68 34.623,0 0,14.116 -34.623,-0.007 0,17.003 37.593,0 0,14.019 L 0,75.83 0,0 z"
               id="path34"
               style="fill:#ffffff;fill-opacity:1;fill-rule:nonzero;stroke:none" /></g><g
             transform="translate(466.0605,278.5781)"
             id="g36"
             style="fill:#ffffff"><path
               d="m 0,0 c -14.059,0 -19.344,12.269 -19.344,24.437 0,12.781 5.285,25.051 19.344,25.051 14.06,0 19.345,-12.27 19.345,-25.051 C 19.345,12.269 14.06,0 0,0 m 0,62.985 c -22.036,0 -34.999,-16.872 -34.999,-38.548 0,-21.064 12.963,-37.935 34.999,-37.935 22.037,0 35,16.871 35,37.935 0,21.676 -12.963,38.548 -35,38.548"
               id="path38"
               style="fill:#ffffff;fill-opacity:1;fill-rule:nonzero;stroke:none" /></g><g
             transform="translate(252.5029,279.1406)"
             id="g40"
             style="fill:#ffffff"><path
               d="m 0,0 -13.96,0 0,47.792 11.168,0 c 15.555,0 20.541,-9.771 20.541,-25.064 C 17.749,5.947 9.074,0 0,0 m 1.097,61.811 -30.712,0 0,-75.83 30.712,0 c 21.737,0 32.307,16.355 32.307,38.34 0,25.17 -13.86,37.49 -32.307,37.49"
               id="path42"
               style="fill:#ffffff;fill-opacity:1;fill-rule:nonzero;stroke:none" /></g><g
             transform="translate(622.3018,319.6152)"
             id="g44"
             style="fill:#ffffff"><path
               d="m 0,0 c -1.999,12.625 -13.046,20.2 -25.566,20.2 -19.674,0 -31.142,-16.097 -31.142,-35.35 0,-19.253 11.468,-35.351 31.142,-35.351 14.624,0 25.987,13.046 26.828,27.039 l 4.63,0 c -1.684,-17.886 -14.941,-31.036 -31.458,-31.036 -22.515,0 -35.772,17.359 -35.772,39.348 0,21.988 13.257,39.348 35.772,39.348 C 1.052,24.198 4.523,1.052 4.629,0 L 0,0 z"
               id="path46"
               style="fill:#ffffff;fill-opacity:1;fill-rule:nonzero;stroke:none" /></g><g
             transform="translate(670.2754,269.1143)"
             id="g48"
             style="fill:#ffffff"><path
               d="m 0,0 c 19.569,0 31.037,16.098 31.037,35.351 0,19.253 -11.468,35.35 -31.037,35.35 -19.674,0 -31.142,-16.097 -31.142,-35.35 C -31.142,16.098 -19.674,0 0,0 m 0,-3.997 c -22.515,0 -35.771,17.359 -35.771,39.348 0,21.988 13.256,39.348 35.771,39.348 22.41,0 35.666,-17.36 35.666,-39.348 C 35.666,13.362 22.41,-3.997 0,-3.997"
               id="path50"
               style="fill:#ffffff;fill-opacity:1;fill-rule:nonzero;stroke:none" /></g><g
             transform="translate(718.1289,269.4268)"
             id="g52"
             style="fill:#ffffff"><path
               d="m 0,0 c 0,-2.347 -1.902,-4.25 -4.25,-4.25 -2.347,0 -4.25,1.903 -4.25,4.25 0,2.347 1.903,4.25 4.25,4.25 C -1.902,4.25 0,2.347 0,0"
               id="path54"
               style="fill:#ffffff;fill-opacity:1;fill-rule:nonzero;stroke:none" /></g><g
             transform="translate(513.6904,265.1172)"
             id="g56"
             style="fill:#ffffff"><path
               d="m 0,0 33.457,78.696 4.314,0 L 4.314,0 0,0 z"
               id="path58"
               style="fill:#ffffff;fill-opacity:1;fill-rule:nonzero;stroke:none" /></g></g></g></g></g></svg>