<?xml version="1.0" encoding="UTF-8" standalone="no"?>
<!-- Created with Inkscape (http://www.inkscape.org/) -->

<svg
   xmlns:dc="http://purl.org/dc/elements/1.1/"
   xmlns:cc="http://creativecommons.org/ns#"
   xmlns:rdf="http://www.w3.org/1999/02/22-rdf-syntax-ns#"
   xmlns:svg="http://www.w3.org/2000/svg"
   xmlns="http://www.w3.org/2000/svg"
   version="1.1"
   width="537.34375"
   height="537.34375"
   id="svg2"
   xml:space="preserve"><metadata
     id="metadata8"><rdf:RDF><cc:Work
         rdf:about=""><dc:format>image/svg+xml</dc:format><dc:type
           rdf:resource="http://purl.org/dc/dcmitype/StillImage" /><dc:title></dc:title></cc:Work></rdf:RDF></metadata><defs
     id="defs6"><clipPath
       id="clipPath16"><path
         d="M 0,612 792,612 792,0 0,0 0,612 z"
         id="path18" /></clipPath></defs><g
     transform="matrix(1.25,0,0,-1.25,-2.69235,763.29758)"
     id="g10"><g
       transform="translate(538.49295,339.51147)"
       id="g20"
       style="fill:#ffffff"><path
         d="m -321.39433,180.64048 c -68.73336,0 -124.45863,-55.72469 -124.45863,-124.458628 0,-68.733356 55.72527,-124.444152 124.45863,-124.444152 68.73393,0 124.44415,55.710796 124.44415,124.444152 0,68.733938 -55.71022,124.458628 -124.44415,124.458628 z m 0,-9.00364 c 63.65889,0 115.44051,-51.79609 115.44051,-115.454988 0,-63.6583159 -51.78162,-115.440516 -115.44051,-115.440516 -63.65832,0 -115.45499,51.7822001 -115.45499,115.440516 0,63.658898 51.79667,115.454988 115.45499,115.454988 z m 0,-7.52715 c -59.50796,0 -107.92784,-48.4193 -107.92784,-107.927838 0,-59.5085369 48.41988,-107.91336 107.92784,-107.91336 59.50853,0 107.91336,48.4048231 107.91336,107.91336 0,59.508538 -48.40483,107.927838 -107.91336,107.927838 z m -35.84084,-18.87579 12.11582,0 4.41497,-28.80585 4.27021,-30.137574 4.27021,30.137574 4.58867,28.80585 0.34741,0 11.66709,0 0.44874,0 4.41496,-28.80585 4.27022,-30.137574 4.27021,30.137574 4.58867,28.80585 12.0145,0 -12.99882,-76.458537 -15.86493,0 -7.02052,41.905997 -7.12185,-41.905997 -15.86492,0 -12.81064,76.458537 z m 102.93385,-49.867411 c 4.10809,0 7.62385,-0.921208 10.5525,-2.750307 2.27783,-1.425527 4.12661,-3.416171 5.52956,-5.978299 1.39947,-2.554601 2.23093,-5.493666 2.5187,-8.815458 l -11.34863,0 c -0.45337,2.167821 -1.24662,3.923386 -2.37395,5.26901 -1.05844,1.260509 -2.58182,1.896264 -4.5742,1.896264 -2.11513,0 -3.72073,-0.938578 -4.82027,-2.808208 -0.894,-1.504853 -1.3462,-3.380273 -1.3462,-5.616417 0,-3.500128 1.50485,-7.048892 4.51629,-10.668296 1.13776,-1.383839 2.84526,-3.022443 5.12426,-4.892651 2.6843,-2.237882 4.45839,-3.796582 5.31243,-4.689998 2.847,-2.848739 5.0403,-5.658684 6.58626,-8.424624 0.73245,-1.302777 1.33289,-2.504806 1.78046,-3.60435 1.09839,-2.725988 1.66698,-5.168261 1.70809,-7.324501 0.0805,-5.329806 -1.30741,-9.88084 -4.15441,-13.664683 -1.87079,-2.562708 -4.51572,-4.370962 -7.93247,-5.428238 -1.82967,-0.56859 -3.97144,-0.854043 -6.41255,-0.854043 -4.51456,0 -8.25035,1.120389 -11.21836,3.35827 -2.48223,1.831415 -4.44855,4.315955 -5.89145,7.469255 -1.44405,3.149825 -2.28883,6.76286 -2.53318,10.827524 l 11.08808,0 c 0.53733,-4.038609 1.67682,-7.009519 3.43065,-8.887834 1.38442,-1.512958 2.97207,-2.224564 4.76237,-2.142344 2.52276,0.08164 4.53135,1.317831 6.0362,3.720152 0.77241,1.181763 1.15803,2.867846 1.15803,5.066354 0,3.175881 -1.43943,6.331497 -4.32812,9.466847 -2.27841,2.15624 -5.69342,5.39697 -10.24851,9.712926 -3.82495,3.705098 -6.53473,7.02631 -8.12064,9.959006 -1.70925,3.298052 -2.56213,6.872872 -2.56213,10.740673 0,6.961461 2.34152,12.237998 7.02052,15.821503 2.88753,2.15682 6.4693,3.242467 10.74067,3.242467 z m -135.17035,-0.01448 c 0.26159,0.0085 0.52915,0 0.79614,0 4.10809,0 7.62385,-0.906733 10.5525,-2.735832 2.27725,-1.425527 4.11098,-3.416171 5.51509,-5.978299 1.39947,-2.557496 2.24541,-5.505246 2.53317,-8.829933 l -11.36311,0 c -0.4522,2.171295 -1.2304,3.935545 -2.35947,5.283485 -1.05901,1.261667 -2.58066,1.896264 -4.57419,1.896264 -2.11514,0 -3.72189,-0.938578 -4.82028,-2.808208 -0.89515,-1.50659 -1.3462,-3.380273 -1.3462,-5.616417 0,-3.498391 1.50485,-7.048892 4.51629,-10.668296 1.13776,-1.383839 2.84585,-3.021864 5.12426,-4.892651 2.68488,-2.237303 4.45839,-3.796003 5.31243,-4.689998 2.84758,-2.848739 5.0403,-5.656947 6.58626,-8.424624 0.73303,-1.301619 1.31726,-2.506543 1.76599,-3.60435 1.09781,-2.725988 1.66755,-5.16884 1.70809,-7.324501 0.0811,-5.329806 -1.29294,-9.883156 -4.13994,-13.664683 -1.87079,-2.563866 -4.51514,-4.370962 -7.93246,-5.428238 -1.83026,-0.569748 -3.97203,-0.854043 -6.41256,-0.854043 -4.51514,0 -8.26424,1.120389 -11.23283,3.35827 -2.48165,1.831415 -4.4335,4.317113 -5.87698,7.469255 -1.44405,3.152141 -2.28941,6.759386 -2.53317,10.827524 l 0.0579,0.01447 11.03018,0 c 0.53732,-4.044399 1.67334,-7.02052 3.43064,-8.902309 1.38268,-1.5118 2.97265,-2.224564 4.76238,-2.142344 2.52275,0.08164 4.53192,1.317831 6.0362,3.720152 0.77298,1.179447 1.15802,2.869004 1.15802,5.066354 0,3.177039 -1.43942,6.330918 -4.32812,9.466847 -2.27841,2.15624 -5.69342,5.395812 -10.24851,9.712926 -3.82437,3.704519 -6.53473,7.028047 -8.12064,9.959006 -1.70924,3.298052 -2.56213,6.873451 -2.56213,10.740673 0,6.96204 2.34153,12.236261 7.02052,15.821503 2.70707,2.020931 6.02073,3.101524 9.94453,3.227992 z m 64.0532,-39.170162 8.0338,0 0,-47.9566686 6.77444,0 0,-8.04826673 -6.77444,0 0,-6.25332957 10.59592,0 0,-8.0482671 -10.59592,0 0,-6.050675 14.01209,0 0,-8.048267 -14.01209,0 0,-14.272645 -8.0338,0 0,14.272645 -13.99761,0 0,8.048267 13.99761,0 0,6.050675 -10.58144,0 0,8.0482671 10.58144,0 0,6.25332957 -6.75996,0 0,8.04826673 6.75996,0 0,47.9566686 z"
         id="path22"
         style="fill:#ffffff;fill-opacity:1;fill-rule:nonzero;stroke:none" /></g><g
       transform="translate(395.999,480.8062)"
       id="g24" /><g
       transform="translate(437.1621,448.2031)"
       id="g28" /><g
       transform="translate(309.937,273.8662)"
       id="g32" /><g
       transform="translate(542.0205,273.8662)"
       id="g36" /><g
       transform="translate(427.1221,162.5215)"
       id="g40" /></g></svg>